<?xml version="1.0" encoding="utf-8"?>
<!-- Generator: Adobe Illustrator 21.0.0, SVG Export Plug-In . SVG Version: 6.00 Build 0)  -->
<svg version="1.1"
	 id="svg2" xmlns:cc="http://creativecommons.org/ns#" xmlns:dc="http://purl.org/dc/elements/1.1/" xmlns:rdf="http://www.w3.org/1999/02/22-rdf-syntax-ns#" xmlns:svg="http://www.w3.org/2000/svg"
	 xmlns="http://www.w3.org/2000/svg" xmlns:xlink="http://www.w3.org/1999/xlink" x="0px" y="0px" viewBox="0 0 351.4 140.6"
	 style="enable-background:new 0 0 351.4 140.6;" xml:space="preserve">
<style type="text/css">
	.st0{fill:#0038A8;}
	.st1{enable-background:new    ;}
</style>
<g>
	<path id="path22" class="st0" d="M189.7,38.5H204V31h0c0-5.1-1.9-9.8-4.9-13.4c0,0,0,0,0,0c-0.9-1-1.8-2-2.9-2.9l0,0
		c-0.1-0.1-0.3-0.2-0.4-0.3l0,0c-0.1-0.1-0.3-0.2-0.4-0.3c0,0,0,0,0,0c-0.1-0.1-0.3-0.2-0.4-0.3c-0.1-0.1-0.3-0.2-0.4-0.3
		c0,0,0,0,0,0c-0.7-0.5-1.4-0.9-2.2-1.3c0,0,0,0,0,0c-0.3-0.2-0.6-0.3-0.9-0.4c0,0,0,0,0,0c-0.2-0.1-0.3-0.1-0.5-0.2c0,0,0,0,0,0
		c-0.1-0.1-0.3-0.1-0.4-0.2c0,0,0,0,0,0c-0.1,0-0.2-0.1-0.3-0.1c0,0-0.1,0-0.1-0.1c-0.1,0-0.2-0.1-0.3-0.1c-0.1,0-0.1,0-0.2-0.1
		c-0.1,0-0.1,0-0.2-0.1c-0.1,0-0.2-0.1-0.3-0.1c0,0-0.1,0-0.1,0c-0.1,0-0.3-0.1-0.4-0.1h0c-0.2,0-0.3-0.1-0.5-0.1c0,0,0,0,0,0
		c-0.1,0-0.2,0-0.2-0.1c-0.1,0-0.2,0-0.3-0.1h0c-0.2,0-0.3-0.1-0.5-0.1c0,0,0,0,0,0c-0.2,0-0.3-0.1-0.5-0.1c0,0,0,0,0,0
		c-0.2,0-0.3-0.1-0.5-0.1c0,0,0,0,0,0c-0.2,0-0.3-0.1-0.5-0.1c0,0,0,0,0,0c-0.2,0-0.3,0-0.5-0.1c0,0,0,0,0,0c-0.2,0-0.4,0-0.5,0h0
		c-0.2,0-0.4,0-0.5,0h0c-0.2,0-0.4,0-0.5,0h0c-0.2,0-0.4,0-0.5,0c-11.7,0-21.3,9.6-21.3,21.3v0.2h0v14.3l-21.5,0.1l0,29l0,0
		c-0.1,3.8-3.3,6.8-7.1,6.8s-6.9-3.1-7-6.8h0v-0.2v-29h-11.9v0H90.5v14.3h21.1v14.9v0c0,11.7,9.5,21.3,21.3,21.3c0.2,0,0.4,0,0.5,0
		h0c0.2,0,0.4,0,0.5,0c0,0,0,0,0,0c0.2,0,0.4,0,0.5,0h0c0.2,0,0.4,0,0.5,0c0,0,0,0,0,0c0,0,0.1,0,0.1,0c0.1,0,0.3,0,0.4,0
		c0.2,0,0.3,0,0.5-0.1c0,0,0,0,0,0c0.2,0,0.3-0.1,0.5-0.1c0,0,0,0,0,0c0.1,0,0.2,0,0.3-0.1c0.1,0,0.2,0,0.2,0c0,0,0,0,0,0
		c0.2,0,0.3-0.1,0.5-0.1c0,0,0,0,0,0c0.1,0,0.2,0,0.2-0.1c0.1,0,0.2,0,0.3-0.1c0.1,0,0.1,0,0.2,0c0.1,0,0.2-0.1,0.3-0.1
		c0.1,0,0.1,0,0.2-0.1c0.1,0,0.2-0.1,0.3-0.1c0.1,0,0.2-0.1,0.3-0.1c0.1,0,0.1,0,0.2-0.1c0.1,0,0.2-0.1,0.3-0.1c0.1,0,0.1,0,0.2-0.1
		c0.1,0,0.2-0.1,0.3-0.1c0.1,0,0.1,0,0.2-0.1c0.1,0,0.2-0.1,0.3-0.1c0,0,0.1,0,0.1-0.1c0.1,0,0.2-0.1,0.3-0.1c0,0,0.1,0,0.1-0.1
		c0.1-0.1,0.2-0.1,0.3-0.2c0,0,0.1,0,0.1-0.1c0.1-0.1,0.2-0.1,0.3-0.2c0,0,0.1,0,0.1-0.1c0.1-0.1,0.2-0.1,0.4-0.2c0,0,0.1,0,0.1,0
		c0.1-0.1,0.3-0.1,0.4-0.2c0,0,0,0,0.1,0c0.1-0.1,0.3-0.1,0.4-0.2l0.1,0c0.3-0.2,0.5-0.3,0.8-0.5c0,0,0,0,0,0
		c0.1-0.1,0.3-0.2,0.4-0.3c0,0,0,0,0,0c0.1-0.1,0.3-0.2,0.4-0.3c0,0,0,0,0,0c0.1-0.1,0.2-0.2,0.3-0.3c0,0,0.1,0,0.1-0.1
		c0.1-0.1,0.2-0.2,0.3-0.3c0,0,0,0,0.1,0c0.4-0.3,0.8-0.7,1.1-1c0,0,0,0,0,0c0.1-0.1,0.2-0.2,0.4-0.3c0,0,0,0,0,0
		c0.4-0.4,0.7-0.7,1-1.1c0,0,0,0,0,0c0.1-0.1,0.2-0.2,0.3-0.3c0,0,0,0,0,0c0.1-0.1,0.2-0.3,0.3-0.4c0,0,0,0,0,0
		c0.1-0.1,0.2-0.2,0.3-0.4c0,0,0,0,0,0c1.1-1.5,2.1-3.1,2.8-4.9c0,0,0,0,0,0c1-2.4,1.6-5,1.6-7.7l0,0v-15h7.2v35.5h14.2V59.8H204
		v35.4h14.2V59.8h42.7V45.6h-42.7V31.3c0-3.9,3.2-7.1,7.1-7.1c3.9,0,7.1,3.2,7.1,7.1c0,0,0,0,0,0v7.2h14.2l0-7.2h0
		c0-11.7-9.6-21.3-21.3-21.3c-0.2,0-0.4,0-0.5,0h0c-0.2,0-0.4,0-0.5,0h0c-0.2,0-0.4,0-0.5,0h0c-0.2,0-0.4,0-0.5,0c0,0,0,0,0,0
		c-0.2,0-0.3,0-0.5,0.1c0,0,0,0,0,0c-0.2,0-0.3,0-0.5,0.1h0c-0.1,0-0.2,0-0.3,0c-0.1,0-0.2,0-0.2,0c-0.1,0-0.1,0-0.2,0
		c-0.1,0-0.2,0-0.3,0.1c0,0-0.1,0-0.1,0c-0.1,0-0.3,0.1-0.4,0.1c0,0,0,0-0.1,0c-0.1,0-0.3,0.1-0.4,0.1c-0.1,0-0.1,0-0.2,0
		c-0.1,0-0.2,0.1-0.4,0.1c0,0-0.1,0-0.1,0c-0.1,0-0.3,0.1-0.4,0.1c-0.1,0-0.2,0.1-0.4,0.1c0,0-0.1,0-0.1,0c-0.1,0-0.2,0.1-0.3,0.1
		c-0.1,0-0.1,0-0.2,0.1c-0.1,0-0.2,0.1-0.2,0.1c-0.1,0-0.2,0.1-0.2,0.1c-0.1,0-0.2,0.1-0.2,0.1c-0.1,0-0.2,0.1-0.2,0.1
		c-0.1,0-0.1,0.1-0.2,0.1c-0.1,0-0.2,0.1-0.3,0.1c-0.1,0-0.1,0.1-0.2,0.1c-0.1,0-0.2,0.1-0.3,0.1c-0.1,0-0.1,0.1-0.2,0.1
		c-0.1,0-0.2,0.1-0.2,0.1c-0.1,0-0.2,0.1-0.3,0.2c-0.1,0-0.1,0.1-0.2,0.1c-0.1,0.1-0.2,0.1-0.3,0.2c0,0-0.1,0.1-0.1,0.1
		c-0.1,0.1-0.3,0.2-0.4,0.2c0,0,0,0,0,0c-0.1,0.1-0.3,0.2-0.4,0.3c0,0,0,0,0,0c-0.1,0.1-0.3,0.2-0.4,0.3c0,0,0,0,0,0
		c-0.1,0.1-0.3,0.2-0.4,0.3c0,0,0,0,0,0c-0.1,0.1-0.3,0.2-0.4,0.3c0,0,0,0,0,0c-0.1,0.1-0.2,0.2-0.4,0.3c0,0,0,0,0,0
		c-0.1,0.1-0.2,0.2-0.3,0.3c0,0,0,0,0,0c-0.5,0.4-1,0.9-1.5,1.3c0,0,0,0,0,0c-0.5,0.5-0.9,1-1.4,1.5c0,0,0,0,0,0
		c-0.1,0.1-0.2,0.3-0.3,0.4c0,0,0,0,0,0c-0.1,0.1-0.2,0.3-0.3,0.4c0,0,0,0,0,0c-0.1,0.1-0.2,0.3-0.3,0.4c0,0,0,0,0,0
		c-0.1,0.1-0.2,0.3-0.3,0.4c0,0,0,0,0,0c-0.1,0.1-0.2,0.3-0.3,0.4l0,0c-0.7,1.1-1.4,2.3-1.9,3.6c0,0,0,0,0,0.1
		c-0.1,0.1-0.1,0.3-0.2,0.4c0,0,0,0,0,0.1c-0.1,0.2-0.1,0.3-0.2,0.5c0,0,0,0,0,0c-0.1,0.2-0.1,0.3-0.2,0.5c0,0,0,0,0,0
		c-0.1,0.2-0.1,0.3-0.1,0.5c0,0,0,0,0,0c0,0.2-0.1,0.3-0.1,0.5v0c-0.1,0.3-0.2,0.7-0.2,1c0,0,0,0,0,0c0,0.2-0.1,0.3-0.1,0.5
		c0,0,0,0,0,0c0,0.2-0.1,0.3-0.1,0.5c0,0,0,0,0,0c0,0.2,0,0.3-0.1,0.5c0,0,0,0,0,0.1c0,0.2,0,0.3-0.1,0.5c0,0,0,0,0,0
		c0,0.2,0,0.3,0,0.5c0,0,0,0,0,0.1c0,0.2,0,0.3,0,0.5c0,0,0,0,0,0c0,0.2,0,0.3,0,0.5c0,0,0,0,0,0c0,0.2,0,0.3,0,0.5v0H204v14.5
		h-28.4V31.2c0-3.9,3.2-7.1,7.1-7.1c3.9,0,7.1,3.2,7.1,7.1c0,0.1,0,0.2,0,0.3V38.5z"/>
	<g>
		<g class="st1">
			<path class="st0" d="M7.3,115h3.1v8.3c0,1.3,0,2.2,0.1,2.6c0.1,0.6,0.4,1.1,1,1.5c0.5,0.4,1.2,0.6,2.1,0.6c0.9,0,1.5-0.2,2-0.5
				c0.4-0.4,0.7-0.8,0.8-1.3s0.1-1.4,0.1-2.6V115h3.1v8.1c0,1.8-0.1,3.2-0.3,3.9c-0.2,0.8-0.5,1.4-0.9,1.9c-0.5,0.5-1.1,0.9-1.8,1.3
				c-0.8,0.3-1.7,0.5-3,0.5c-1.5,0-2.6-0.2-3.3-0.5c-0.8-0.3-1.4-0.8-1.8-1.3s-0.7-1.1-0.9-1.7c-0.2-0.9-0.3-2.2-0.3-3.9V115z"/>
		</g>
		<g class="st1">
			<path class="st0" d="M32.8,130.4h-3v-5.7c0-1.2-0.1-2-0.2-2.3s-0.3-0.6-0.6-0.8c-0.3-0.2-0.6-0.3-1-0.3c-0.5,0-1,0.1-1.4,0.4
				c-0.4,0.3-0.7,0.7-0.8,1.1c-0.2,0.5-0.2,1.3-0.2,2.6v5.1h-3v-11.2h2.7v1.6c1-1.3,2.2-1.9,3.7-1.9c0.7,0,1.2,0.1,1.8,0.4
				s0.9,0.5,1.2,0.9c0.3,0.4,0.5,0.8,0.6,1.2c0.1,0.5,0.2,1.1,0.2,2V130.4z"/>
		</g>
		<g class="st1">
			<path class="st0" d="M35.7,117.7V115h3v2.7H35.7z M35.7,130.4v-11.2h3v11.2H35.7z"/>
		</g>
		<g class="st1">
			<path class="st0" d="M44.6,130.4l-4.5-11.2h3.1l2.1,5.7l0.6,1.9c0.2-0.5,0.3-0.8,0.3-1c0.1-0.3,0.2-0.6,0.3-0.9l2.1-5.7h3
				l-4.4,11.2H44.6z"/>
		</g>
		<g class="st1">
			<path class="st0" d="M59.8,126.8l2.9,0.5c-0.4,1.1-1,1.9-1.8,2.5c-0.8,0.6-1.8,0.8-3.1,0.8c-1.9,0-3.4-0.6-4.3-1.9
				c-0.7-1-1.1-2.3-1.1-3.8c0-1.8,0.5-3.3,1.4-4.3c1-1,2.2-1.6,3.7-1.6c1.7,0,3,0.5,3.9,1.6s1.4,2.8,1.4,5h-7.4c0,0.9,0.3,1.6,0.7,2
				c0.5,0.5,1,0.7,1.7,0.7c0.5,0,0.9-0.1,1.2-0.4C59.4,127.8,59.6,127.4,59.8,126.8z M60,123.9c0-0.9-0.2-1.5-0.7-1.9
				c-0.4-0.4-0.9-0.7-1.5-0.7c-0.6,0-1.2,0.2-1.6,0.7s-0.6,1.1-0.6,1.9H60z"/>
		</g>
		<g class="st1">
			<path class="st0" d="M68,130.4h-3v-11.2h2.7v1.6c0.5-0.8,0.9-1.2,1.3-1.5c0.4-0.2,0.8-0.4,1.3-0.4c0.7,0,1.3,0.2,1.9,0.6
				l-0.9,2.6c-0.5-0.3-1-0.5-1.4-0.5c-0.4,0-0.8,0.1-1.1,0.3s-0.5,0.6-0.7,1.2c-0.2,0.6-0.2,1.8-0.2,3.7V130.4z"/>
		</g>
		<g class="st1">
			<path class="st0" d="M72.3,127.2l3-0.5c0.1,0.6,0.4,1,0.8,1.3c0.4,0.3,0.9,0.4,1.6,0.4c0.8,0,1.3-0.1,1.7-0.4
				c0.3-0.2,0.4-0.5,0.4-0.8c0-0.2-0.1-0.4-0.2-0.6c-0.1-0.1-0.5-0.3-1-0.4c-2.4-0.5-3.9-1-4.5-1.4c-0.9-0.6-1.3-1.4-1.3-2.5
				c0-1,0.4-1.8,1.1-2.4s1.9-1,3.5-1c1.5,0,2.7,0.2,3.4,0.7c0.7,0.5,1.3,1.2,1.5,2.2l-2.8,0.5c-0.1-0.4-0.3-0.8-0.7-1
				c-0.3-0.2-0.8-0.3-1.4-0.3c-0.8,0-1.3,0.1-1.7,0.3c-0.2,0.2-0.3,0.4-0.3,0.6c0,0.2,0.1,0.4,0.3,0.5c0.3,0.2,1.2,0.5,2.8,0.8
				s2.7,0.8,3.3,1.3c0.6,0.5,0.9,1.3,0.9,2.2c0,1-0.4,1.9-1.3,2.6c-0.9,0.7-2.1,1.1-3.8,1.1c-1.5,0-2.7-0.3-3.6-0.9
				C73.2,129.1,72.6,128.3,72.3,127.2z"/>
		</g>
		<g class="st1">
			<path class="st0" d="M85.2,117.7V115h3v2.7H85.2z M85.2,130.4v-11.2h3v11.2H85.2z"/>
		</g>
		<g class="st1">
			<path class="st0" d="M101.2,130.4h-2.7v-1.6c-0.5,0.6-1,1.1-1.6,1.4s-1.2,0.5-1.9,0.5c-1.3,0-2.4-0.5-3.3-1.5
				c-0.9-1-1.4-2.5-1.4-4.3c0-1.9,0.4-3.3,1.3-4.3c0.9-1,2-1.5,3.4-1.5c1.2,0,2.3,0.5,3.2,1.6V115h3V130.4z M93.3,124.6
				c0,1.2,0.2,2.1,0.5,2.6c0.5,0.8,1.1,1.2,2,1.2c0.7,0,1.3-0.3,1.7-0.9c0.5-0.6,0.7-1.4,0.7-2.6c0-1.3-0.2-2.2-0.7-2.8
				c-0.5-0.6-1.1-0.8-1.8-0.8c-0.7,0-1.3,0.3-1.8,0.8C93.6,122.6,93.3,123.5,93.3,124.6z"/>
		</g>
		<g class="st1">
			<path class="st0" d="M106.2,122.6l-2.7-0.5c0.3-1.1,0.8-1.9,1.6-2.4c0.7-0.5,1.8-0.8,3.3-0.8c1.3,0,2.3,0.2,2.9,0.5
				s1.1,0.7,1.4,1.2c0.3,0.5,0.4,1.4,0.4,2.6l0,3.4c0,1,0,1.7,0.1,2.2c0.1,0.5,0.3,1,0.5,1.5h-2.9c-0.1-0.2-0.2-0.5-0.3-0.9
				c0-0.2-0.1-0.3-0.1-0.3c-0.5,0.5-1,0.9-1.6,1.1c-0.6,0.2-1.2,0.4-1.8,0.4c-1.1,0-2.1-0.3-2.7-0.9s-1-1.4-1-2.4
				c0-0.6,0.2-1.2,0.5-1.7c0.3-0.5,0.7-0.9,1.3-1.1c0.5-0.3,1.3-0.5,2.3-0.7c1.4-0.3,2.3-0.5,2.9-0.7v-0.3c0-0.6-0.1-1-0.4-1.2
				c-0.3-0.2-0.8-0.4-1.6-0.4c-0.5,0-0.9,0.1-1.2,0.3C106.6,121.8,106.4,122.1,106.2,122.6z M110.1,125c-0.4,0.1-1,0.3-1.8,0.5
				c-0.8,0.2-1.4,0.3-1.6,0.5c-0.4,0.3-0.6,0.6-0.6,1c0,0.4,0.2,0.8,0.5,1.1c0.3,0.3,0.7,0.5,1.2,0.5c0.5,0,1-0.2,1.5-0.5
				c0.4-0.3,0.6-0.6,0.7-1c0.1-0.3,0.1-0.7,0.1-1.4V125z"/>
		</g>
		<g class="st1">
			<path class="st0" d="M126,130.4h-2.7v-1.6c-0.5,0.6-1,1.1-1.6,1.4s-1.2,0.5-1.9,0.5c-1.3,0-2.4-0.5-3.3-1.5
				c-0.9-1-1.4-2.5-1.4-4.3c0-1.9,0.4-3.3,1.3-4.3c0.9-1,2-1.5,3.4-1.5c1.2,0,2.3,0.5,3.2,1.6V115h3V130.4z M118.1,124.6
				c0,1.2,0.2,2.1,0.5,2.6c0.5,0.8,1.1,1.2,2,1.2c0.7,0,1.3-0.3,1.7-0.9c0.5-0.6,0.7-1.4,0.7-2.6c0-1.3-0.2-2.2-0.7-2.8
				c-0.5-0.6-1.1-0.8-1.8-0.8c-0.7,0-1.3,0.3-1.8,0.8C118.4,122.6,118.1,123.5,118.1,124.6z"/>
		</g>
		<g class="st1">
			<path class="st0" d="M135.2,126.8l2.9,0.5c-0.4,1.1-1,1.9-1.8,2.5c-0.8,0.6-1.8,0.8-3.1,0.8c-1.9,0-3.4-0.6-4.3-1.9
				c-0.7-1-1.1-2.3-1.1-3.8c0-1.8,0.5-3.3,1.4-4.3c1-1,2.2-1.6,3.7-1.6c1.7,0,3,0.5,3.9,1.6s1.4,2.8,1.4,5h-7.4c0,0.9,0.3,1.6,0.7,2
				c0.5,0.5,1,0.7,1.7,0.7c0.5,0,0.9-0.1,1.2-0.4C134.8,127.8,135.1,127.4,135.2,126.8z M135.4,123.9c0-0.9-0.2-1.5-0.7-1.9
				c-0.4-0.4-0.9-0.7-1.5-0.7c-0.6,0-1.2,0.2-1.6,0.7s-0.6,1.1-0.6,1.9H135.4z"/>
		</g>
		<g class="st1">
			<path class="st0" d="M146.8,130.4V115h10.6v2.6h-7.4v3.6h6.4v2.6h-6.4v6.5H146.8z"/>
		</g>
		<g class="st1">
			<path class="st0" d="M166.2,126.8l2.9,0.5c-0.4,1.1-1,1.9-1.8,2.5c-0.8,0.6-1.8,0.8-3.1,0.8c-1.9,0-3.4-0.6-4.3-1.9
				c-0.7-1-1.1-2.3-1.1-3.8c0-1.8,0.5-3.3,1.4-4.3c1-1,2.2-1.6,3.7-1.6c1.7,0,3,0.5,3.9,1.6s1.4,2.8,1.4,5h-7.4c0,0.9,0.3,1.6,0.7,2
				c0.5,0.5,1,0.7,1.7,0.7c0.5,0,0.9-0.1,1.2-0.4C165.8,127.8,166,127.4,166.2,126.8z M166.3,123.9c0-0.9-0.2-1.5-0.7-1.9
				c-0.4-0.4-0.9-0.7-1.5-0.7c-0.6,0-1.2,0.2-1.6,0.7s-0.6,1.1-0.6,1.9H166.3z"/>
		</g>
		<g class="st1">
			<path class="st0" d="M181.7,130.4H179v-1.6c-0.5,0.6-1,1.1-1.6,1.4s-1.2,0.5-1.9,0.5c-1.3,0-2.4-0.5-3.3-1.5
				c-0.9-1-1.4-2.5-1.4-4.3c0-1.9,0.4-3.3,1.3-4.3c0.9-1,2-1.5,3.4-1.5c1.2,0,2.3,0.5,3.2,1.6V115h3V130.4z M173.9,124.6
				c0,1.2,0.2,2.1,0.5,2.6c0.5,0.8,1.1,1.2,2,1.2c0.7,0,1.3-0.3,1.7-0.9c0.5-0.6,0.7-1.4,0.7-2.6c0-1.3-0.2-2.2-0.7-2.8
				s-1.1-0.8-1.8-0.8c-0.7,0-1.3,0.3-1.8,0.8C174.1,122.6,173.9,123.5,173.9,124.6z"/>
		</g>
		<g class="st1">
			<path class="st0" d="M191,126.8l2.9,0.5c-0.4,1.1-1,1.9-1.8,2.5c-0.8,0.6-1.8,0.8-3.1,0.8c-1.9,0-3.4-0.6-4.3-1.9
				c-0.7-1-1.1-2.3-1.1-3.8c0-1.8,0.5-3.3,1.4-4.3c1-1,2.2-1.6,3.7-1.6c1.7,0,3,0.5,3.9,1.6s1.4,2.8,1.4,5h-7.4c0,0.9,0.3,1.6,0.7,2
				c0.5,0.5,1,0.7,1.7,0.7c0.5,0,0.8-0.1,1.2-0.4C190.6,127.8,190.8,127.4,191,126.8z M191.1,123.9c0-0.9-0.2-1.5-0.7-1.9
				c-0.4-0.4-0.9-0.7-1.5-0.7c-0.6,0-1.2,0.2-1.6,0.7s-0.6,1.1-0.6,1.9H191.1z"/>
		</g>
		<g class="st1">
			<path class="st0" d="M199.1,130.4h-3v-11.2h2.7v1.6c0.5-0.8,0.9-1.2,1.3-1.5c0.4-0.2,0.8-0.4,1.3-0.4c0.7,0,1.3,0.2,1.9,0.6
				l-0.9,2.6c-0.5-0.3-1-0.5-1.4-0.5c-0.4,0-0.8,0.1-1.1,0.3s-0.5,0.6-0.7,1.2c-0.2,0.6-0.2,1.8-0.2,3.7V130.4z"/>
		</g>
		<g class="st1">
			<path class="st0" d="M206.7,122.6l-2.7-0.5c0.3-1.1,0.8-1.9,1.6-2.4c0.7-0.5,1.8-0.8,3.3-0.8c1.3,0,2.3,0.2,2.9,0.5
				c0.6,0.3,1.1,0.7,1.4,1.2c0.3,0.5,0.4,1.4,0.4,2.6l0,3.4c0,1,0,1.7,0.1,2.2c0.1,0.5,0.3,1,0.5,1.5h-2.9c-0.1-0.2-0.2-0.5-0.3-0.9
				c0-0.2-0.1-0.3-0.1-0.3c-0.5,0.5-1,0.9-1.6,1.1s-1.2,0.4-1.8,0.4c-1.1,0-2.1-0.3-2.7-0.9c-0.7-0.6-1-1.4-1-2.4
				c0-0.6,0.2-1.2,0.5-1.7c0.3-0.5,0.7-0.9,1.3-1.1c0.5-0.3,1.3-0.5,2.3-0.7c1.4-0.3,2.3-0.5,2.9-0.7v-0.3c0-0.6-0.1-1-0.4-1.2
				c-0.3-0.2-0.8-0.4-1.6-0.4c-0.5,0-0.9,0.1-1.2,0.3C207.1,121.8,206.9,122.1,206.7,122.6z M210.7,125c-0.4,0.1-1,0.3-1.8,0.5
				c-0.8,0.2-1.4,0.3-1.6,0.5c-0.4,0.3-0.6,0.6-0.6,1c0,0.4,0.2,0.8,0.5,1.1c0.3,0.3,0.7,0.5,1.2,0.5c0.5,0,1-0.2,1.5-0.5
				c0.4-0.3,0.6-0.6,0.7-1c0.1-0.3,0.1-0.7,0.1-1.4V125z"/>
		</g>
		<g class="st1">
			<path class="st0" d="M216.3,130.4V115h3v15.4H216.3z"/>
		</g>
		<g class="st1">
			<path class="st0" d="M228.3,130.4V115h10.6v2.6h-7.4v3.6h6.4v2.6h-6.4v6.5H228.3z"/>
		</g>
		<g class="st1">
			<path class="st0" d="M241.3,130.4V115h3v15.4H241.3z"/>
		</g>
		<g class="st1">
			<path class="st0" d="M254.4,130.4v-1.7c-0.4,0.6-0.9,1.1-1.6,1.4c-0.7,0.3-1.4,0.5-2.1,0.5c-0.7,0-1.4-0.2-2-0.5
				c-0.6-0.3-1-0.8-1.3-1.4c-0.3-0.6-0.4-1.4-0.4-2.5v-7.1h3v5.1c0,1.6,0.1,2.5,0.2,2.9s0.3,0.6,0.6,0.8c0.3,0.2,0.7,0.3,1.1,0.3
				c0.5,0,1-0.1,1.4-0.4c0.4-0.3,0.7-0.6,0.8-1c0.1-0.4,0.2-1.4,0.2-3v-4.7h3v11.2H254.4z"/>
		</g>
		<g class="st1">
			<path class="st0" d="M259.9,119.2h2.7v1.5c1-1.2,2.1-1.8,3.5-1.8c0.7,0,1.3,0.1,1.9,0.4c0.5,0.3,1,0.7,1.3,1.3
				c0.5-0.6,1-1,1.6-1.3s1.2-0.4,1.8-0.4c0.8,0,1.5,0.2,2.1,0.5c0.6,0.3,1,0.8,1.3,1.5c0.2,0.5,0.3,1.2,0.3,2.3v7.1h-3V124
				c0-1.1-0.1-1.8-0.3-2.1c-0.3-0.4-0.7-0.6-1.3-0.6c-0.4,0-0.8,0.1-1.2,0.4c-0.4,0.3-0.6,0.6-0.8,1.1c-0.2,0.5-0.2,1.3-0.2,2.3v5.4
				h-3v-6.1c0-1.1-0.1-1.8-0.2-2.1c-0.1-0.3-0.3-0.5-0.5-0.7c-0.2-0.2-0.5-0.2-0.9-0.2c-0.5,0-0.9,0.1-1.2,0.4
				c-0.4,0.2-0.6,0.6-0.8,1.1c-0.2,0.5-0.2,1.2-0.2,2.3v5.4h-3V119.2z"/>
		</g>
		<g class="st1">
			<path class="st0" d="M279.1,117.7V115h3v2.7H279.1z M279.1,130.4v-11.2h3v11.2H279.1z"/>
		</g>
		<g class="st1">
			<path class="st0" d="M295,130.4h-3v-5.7c0-1.2-0.1-2-0.2-2.3c-0.1-0.4-0.3-0.6-0.6-0.8c-0.3-0.2-0.6-0.3-1-0.3
				c-0.5,0-1,0.1-1.4,0.4c-0.4,0.3-0.7,0.7-0.8,1.1c-0.2,0.5-0.2,1.3-0.2,2.6v5.1h-3v-11.2h2.7v1.6c1-1.3,2.2-1.9,3.7-1.9
				c0.7,0,1.2,0.1,1.8,0.4s0.9,0.5,1.2,0.9s0.5,0.8,0.6,1.2c0.1,0.5,0.2,1.1,0.2,2V130.4z"/>
		</g>
		<g class="st1">
			<path class="st0" d="M304.3,126.8l2.9,0.5c-0.4,1.1-1,1.9-1.8,2.5c-0.8,0.6-1.8,0.8-3.1,0.8c-1.9,0-3.4-0.6-4.3-1.9
				c-0.7-1-1.1-2.3-1.1-3.8c0-1.8,0.5-3.3,1.4-4.3c1-1,2.2-1.6,3.7-1.6c1.7,0,3,0.5,3.9,1.6s1.4,2.8,1.4,5H300c0,0.9,0.3,1.6,0.7,2
				c0.5,0.5,1,0.7,1.7,0.7c0.5,0,0.9-0.1,1.2-0.4C303.9,127.8,304.2,127.4,304.3,126.8z M304.5,123.9c0-0.9-0.2-1.5-0.7-1.9
				c-0.4-0.4-0.9-0.7-1.5-0.7c-0.6,0-1.2,0.2-1.6,0.7s-0.6,1.1-0.6,1.9H304.5z"/>
		</g>
		<g class="st1">
			<path class="st0" d="M319.8,130.4h-3v-5.7c0-1.2-0.1-2-0.2-2.3c-0.1-0.4-0.3-0.6-0.6-0.8c-0.3-0.2-0.6-0.3-1-0.3
				c-0.5,0-1,0.1-1.4,0.4c-0.4,0.3-0.7,0.7-0.8,1.1c-0.2,0.5-0.2,1.3-0.2,2.6v5.1h-3v-11.2h2.7v1.6c1-1.3,2.2-1.9,3.7-1.9
				c0.7,0,1.2,0.1,1.8,0.4s0.9,0.5,1.2,0.9s0.5,0.8,0.6,1.2c0.1,0.5,0.2,1.1,0.2,2V130.4z"/>
		</g>
		<g class="st1">
			<path class="st0" d="M321.6,127.2l3-0.5c0.1,0.6,0.4,1,0.8,1.3c0.4,0.3,0.9,0.4,1.6,0.4c0.8,0,1.3-0.1,1.7-0.4
				c0.3-0.2,0.4-0.5,0.4-0.8c0-0.2-0.1-0.4-0.2-0.6c-0.1-0.1-0.5-0.3-1-0.4c-2.4-0.5-3.9-1-4.5-1.4c-0.9-0.6-1.3-1.4-1.3-2.5
				c0-1,0.4-1.8,1.1-2.4c0.8-0.7,1.9-1,3.5-1c1.5,0,2.7,0.2,3.4,0.7s1.3,1.2,1.5,2.2l-2.8,0.5c-0.1-0.4-0.3-0.8-0.7-1
				c-0.3-0.2-0.8-0.3-1.4-0.3c-0.8,0-1.3,0.1-1.7,0.3c-0.2,0.2-0.3,0.4-0.3,0.6c0,0.2,0.1,0.4,0.3,0.5c0.3,0.2,1.2,0.5,2.8,0.8
				s2.7,0.8,3.3,1.3c0.6,0.5,0.9,1.3,0.9,2.2c0,1-0.4,1.9-1.3,2.6c-0.9,0.7-2.1,1.1-3.8,1.1c-1.5,0-2.7-0.3-3.6-0.9
				C322.5,129.1,321.9,128.3,321.6,127.2z"/>
		</g>
		<g class="st1">
			<path class="st0" d="M340.9,126.8l2.9,0.5c-0.4,1.1-1,1.9-1.8,2.5c-0.8,0.6-1.8,0.8-3.1,0.8c-1.9,0-3.4-0.6-4.3-1.9
				c-0.7-1-1.1-2.3-1.1-3.8c0-1.8,0.5-3.3,1.4-4.3c1-1,2.2-1.6,3.7-1.6c1.7,0,3,0.5,3.9,1.6s1.4,2.8,1.4,5h-7.4c0,0.9,0.3,1.6,0.7,2
				c0.5,0.5,1,0.7,1.7,0.7c0.5,0,0.8-0.1,1.2-0.4C340.5,127.8,340.8,127.4,340.9,126.8z M341.1,123.9c0-0.9-0.2-1.5-0.7-1.9
				c-0.4-0.4-0.9-0.7-1.5-0.7c-0.6,0-1.2,0.2-1.6,0.7s-0.6,1.1-0.6,1.9H341.1z"/>
		</g>
	</g>
</g>
</svg>
